<?xml version="1.0" encoding="UTF-8" standalone="no"?>
<!DOCTYPE svg PUBLIC "-//W3C//DTD SVG 1.1//EN"
 "http://www.w3.org/Graphics/SVG/1.1/DTD/svg11.dtd">
<!-- Generated by graphviz version 2.43.0 (0)
 -->
<!-- Title: regexp Pages: 1 -->
<svg width="405pt" height="692pt"
 viewBox="0.00 0.00 405.00 692.00" xmlns="http://www.w3.org/2000/svg" xmlns:xlink="http://www.w3.org/1999/xlink">
<g id="graph0" class="graph" transform="scale(1 1) rotate(0) translate(4 688)">
<title>regexp</title>
<!-- req -->
<g id="node1" class="node">
<title>req</title>
<g id="a_node1"><a xlink:title="incomming request">
<ellipse fill="none" stroke="black" cx="347" cy="-666" rx="35.91" ry="18"/>
<text text-anchor="middle" x="347" y="-662.9" font-family="Ubuntu" font-size="12.00">request</text>
</a>
</g>
</g>
<!-- j2m -->
<g id="node3" class="node">
<title>j2m</title>
<g id="a_node3"><a xlink:title="decode json to clojure map">
<ellipse fill="none" stroke="black" cx="347" cy="-594" rx="44.15" ry="18"/>
<text text-anchor="middle" x="347" y="-590.9" font-family="Ubuntu" font-size="12.00">json&#45;&gt;map</text>
</a>
</g>
</g>
<!-- req&#45;&gt;j2m -->
<g id="edge1" class="edge">
<title>req&#45;&gt;j2m</title>
<path fill="none" stroke="black" d="M347,-647.7C347,-639.98 347,-630.71 347,-622.11"/>
<polygon fill="black" stroke="black" points="350.5,-622.1 347,-612.1 343.5,-622.1 350.5,-622.1"/>
</g>
<!-- res -->
<g id="node2" class="node">
<title>res</title>
<g id="a_node2"><a xlink:title="outgoing response">
<ellipse fill="none" stroke="black" cx="278" cy="-18" rx="40.03" ry="18"/>
<text text-anchor="middle" x="278" y="-14.9" font-family="Ubuntu" font-size="12.00">response</text>
</a>
</g>
</g>
<!-- pre -->
<g id="node4" class="node">
<title>pre</title>
<g id="a_node4"><a xlink:title="pre&#45;scripts or pre&#45;processing">
<polygon fill="none" stroke="black" points="216,-540 144.73,-522 216,-504 287.27,-522 216,-540"/>
<text text-anchor="middle" x="216" y="-518.9" font-family="Ubuntu" font-size="12.00">pre dispatch</text>
</a>
</g>
</g>
<!-- j2m&#45;&gt;pre -->
<g id="edge3" class="edge">
<title>j2m&#45;&gt;pre</title>
<path fill="none" stroke="black" d="M321.12,-579.17C299.75,-567.75 269.38,-551.52 246.77,-539.44"/>
<polygon fill="black" stroke="black" points="248.38,-536.34 237.91,-534.71 245.09,-542.51 248.38,-536.34"/>
</g>
<!-- disp -->
<g id="node8" class="node">
<title>disp</title>
<g id="a_node8"><a xlink:title="dispatch">
<polygon fill="none" stroke="black" points="183,-396 129.79,-378 183,-360 236.21,-378 183,-396"/>
<text text-anchor="middle" x="183" y="-374.9" font-family="Ubuntu" font-size="12.00">dispatch</text>
</a>
</g>
</g>
<!-- j2m&#45;&gt;disp -->
<g id="edge2" class="edge">
<title>j2m&#45;&gt;disp</title>
<path fill="none" stroke="black" d="M350.31,-575.79C355.44,-543.76 361.51,-474.39 328,-432 305.35,-403.35 265.74,-390.18 233.63,-384.14"/>
<polygon fill="black" stroke="black" points="233.95,-380.64 223.5,-382.41 232.77,-387.54 233.95,-380.64"/>
</g>
<!-- m2j -->
<g id="node18" class="node">
<title>m2j</title>
<g id="a_node18"><a xlink:title="clojure map to decode json">
<ellipse fill="none" stroke="black" cx="278" cy="-90" rx="44.15" ry="18"/>
<text text-anchor="middle" x="278" y="-86.9" font-family="Ubuntu" font-size="12.00">map&#45;&gt;json</text>
</a>
</g>
</g>
<!-- j2m&#45;&gt;m2j -->
<g id="edge27" class="edge">
<title>j2m&#45;&gt;m2j</title>
<path fill="none" stroke="black" d="M357.12,-576.19C371.73,-550.27 397,-498.57 397,-451 397,-451 397,-451 397,-233 397,-179.18 346.16,-135.05 310.95,-110.94"/>
<polygon fill="black" stroke="black" points="312.64,-107.86 302.37,-105.25 308.76,-113.69 312.64,-107.86"/>
</g>
<!-- pre_js -->
<g id="node5" class="node">
<title>pre_js</title>
<g id="a_node5"><a xlink:title="pre&#45;processing of js code">
<polygon fill="none" stroke="black" points="130,-468 34,-468 34,-432 130,-432 130,-468"/>
<text text-anchor="middle" x="82" y="-446.9" font-family="Ubuntu" font-size="12.00">:PreProcessing</text>
</a>
</g>
</g>
<!-- pre&#45;&gt;pre_js -->
<g id="edge4" class="edge">
<title>pre&#45;&gt;pre_js</title>
<path fill="none" stroke="black" d="M193.87,-509.44C174.84,-499.5 146.87,-484.89 123.66,-472.76"/>
<polygon fill="black" stroke="black" points="125.18,-469.61 114.7,-468.08 121.94,-475.81 125.18,-469.61"/>
</g>
<!-- pre_clj -->
<g id="node6" class="node">
<title>pre_clj</title>
<g id="a_node6"><a xlink:title="clojure functions">
<polygon fill="none" stroke="black" points="217.5,-468 148.5,-468 148.5,-432 217.5,-432 217.5,-468"/>
<text text-anchor="middle" x="183" y="-446.9" font-family="Ubuntu" font-size="12.00">:PreScript</text>
</a>
</g>
</g>
<!-- pre&#45;&gt;pre_clj -->
<g id="edge6" class="edge">
<title>pre&#45;&gt;pre_clj</title>
<path fill="none" stroke="black" d="M208.68,-505.46C204.84,-497.33 200.04,-487.15 195.63,-477.79"/>
<polygon fill="black" stroke="black" points="198.66,-476.01 191.23,-468.46 192.33,-479 198.66,-476.01"/>
</g>
<!-- pre_py -->
<g id="node7" class="node">
<title>pre_py</title>
<g id="a_node7"><a xlink:title="pre&#45;scripts with python3">
<polygon fill="none" stroke="black" points="318.5,-468 235.5,-468 235.5,-432 318.5,-432 318.5,-468"/>
<text text-anchor="middle" x="277" y="-446.9" font-family="Ubuntu" font-size="12.00">:PreScriptPy</text>
</a>
</g>
</g>
<!-- pre&#45;&gt;pre_py -->
<g id="edge5" class="edge">
<title>pre&#45;&gt;pre_py</title>
<path fill="none" stroke="black" d="M228.34,-506.83C236.11,-497.92 246.35,-486.17 255.43,-475.75"/>
<polygon fill="black" stroke="black" points="258.16,-477.95 262.09,-468.11 252.88,-473.35 258.16,-477.95"/>
</g>
<!-- pre_js&#45;&gt;disp -->
<g id="edge7" class="edge">
<title>pre_js&#45;&gt;disp</title>
<path fill="none" stroke="black" d="M106.71,-431.88C122.23,-421.12 142.2,-407.28 157.82,-396.45"/>
<polygon fill="black" stroke="black" points="160.21,-399.05 166.44,-390.48 156.23,-393.3 160.21,-399.05"/>
</g>
<!-- pre_clj&#45;&gt;disp -->
<g id="edge9" class="edge">
<title>pre_clj&#45;&gt;disp</title>
<path fill="none" stroke="black" d="M183,-431.7C183,-423.98 183,-414.71 183,-406.11"/>
<polygon fill="black" stroke="black" points="186.5,-406.1 183,-396.1 179.5,-406.1 186.5,-406.1"/>
</g>
<!-- pre_py&#45;&gt;disp -->
<g id="edge8" class="edge">
<title>pre_py&#45;&gt;disp</title>
<path fill="none" stroke="black" d="M253.76,-431.7C239.63,-421.17 221.6,-407.74 207.27,-397.08"/>
<polygon fill="black" stroke="black" points="209.02,-394.01 198.9,-390.84 204.83,-399.62 209.02,-394.01"/>
</g>
<!-- stub -->
<g id="node9" class="node">
<title>stub</title>
<g id="a_node9"><a xlink:title="pre defind responses">
<polygon fill="none" stroke="black" points="54,-324 0,-324 0,-288 54,-288 54,-324"/>
<text text-anchor="middle" x="27" y="-302.9" font-family="Ubuntu" font-size="12.00">stub</text>
</a>
</g>
</g>
<!-- disp&#45;&gt;stub -->
<g id="edge10" class="edge">
<title>disp&#45;&gt;stub</title>
<path fill="none" stroke="black" d="M160.81,-367.4C138.46,-357.69 102.78,-342.06 63.58,-324.22"/>
<polygon fill="black" stroke="black" points="64.64,-320.85 54.09,-319.88 61.74,-327.22 64.64,-320.85"/>
</g>
<!-- tcp -->
<g id="node10" class="node">
<title>tcp</title>
<g id="a_node10"><a xlink:title="requests to tcp devices">
<polygon fill="none" stroke="black" points="126,-324 72,-324 72,-288 126,-288 126,-324"/>
<text text-anchor="middle" x="99" y="-302.9" font-family="Ubuntu" font-size="12.00">TCP</text>
</a>
</g>
</g>
<!-- disp&#45;&gt;tcp -->
<g id="edge11" class="edge">
<title>disp&#45;&gt;tcp</title>
<path fill="none" stroke="black" d="M168.37,-364.81C157.05,-355.38 141.04,-342.03 127.25,-330.54"/>
<polygon fill="black" stroke="black" points="129.36,-327.75 119.44,-324.03 124.88,-333.13 129.36,-327.75"/>
</g>
<!-- vxi -->
<g id="node11" class="node">
<title>vxi</title>
<g id="a_node11"><a xlink:title="requests to vxi devices">
<polygon fill="none" stroke="black" points="198,-324 144,-324 144,-288 198,-288 198,-324"/>
<text text-anchor="middle" x="171" y="-302.9" font-family="Ubuntu" font-size="12.00">VXI</text>
</a>
</g>
</g>
<!-- disp&#45;&gt;vxi -->
<g id="edge12" class="edge">
<title>disp&#45;&gt;vxi</title>
<path fill="none" stroke="black" d="M180.22,-360.76C178.86,-352.87 177.2,-343.16 175.66,-334.18"/>
<polygon fill="black" stroke="black" points="179.07,-333.39 173.94,-324.12 172.18,-334.57 179.07,-333.39"/>
</g>
<!-- modbus -->
<g id="node12" class="node">
<title>modbus</title>
<g id="a_node12"><a xlink:title="requests to modbus devices">
<polygon fill="none" stroke="black" points="283.5,-324 216.5,-324 216.5,-288 283.5,-288 283.5,-324"/>
<text text-anchor="middle" x="250" y="-302.9" font-family="Ubuntu" font-size="12.00">MODBUS</text>
</a>
</g>
</g>
<!-- disp&#45;&gt;modbus -->
<g id="edge14" class="edge">
<title>disp&#45;&gt;modbus</title>
<path fill="none" stroke="black" d="M195.6,-363.83C204.35,-354.69 216.26,-342.25 226.71,-331.33"/>
<polygon fill="black" stroke="black" points="229.26,-333.73 233.65,-324.08 224.21,-328.89 229.26,-333.73"/>
</g>
<!-- exec -->
<g id="node13" class="node">
<title>exec</title>
<g id="a_node13"><a xlink:title="execution of commands">
<polygon fill="none" stroke="black" points="368.5,-324 301.5,-324 301.5,-288 368.5,-288 368.5,-324"/>
<text text-anchor="middle" x="335" y="-302.9" font-family="Ubuntu" font-size="12.00">EXECUTE</text>
</a>
</g>
</g>
<!-- disp&#45;&gt;exec -->
<g id="edge13" class="edge">
<title>disp&#45;&gt;exec</title>
<path fill="none" stroke="black" d="M204.46,-367.12C227.1,-356.69 263.4,-339.97 291.98,-326.81"/>
<polygon fill="black" stroke="black" points="293.73,-329.86 301.35,-322.5 290.8,-323.5 293.73,-329.86"/>
</g>
<!-- post -->
<g id="node14" class="node">
<title>post</title>
<g id="a_node14"><a xlink:title="post&#45;scripts or post&#45;processing">
<polygon fill="none" stroke="black" points="179,-252 103.02,-234 179,-216 254.98,-234 179,-252"/>
<text text-anchor="middle" x="179" y="-230.9" font-family="Ubuntu" font-size="12.00">post dispatch</text>
</a>
</g>
</g>
<!-- stub&#45;&gt;post -->
<g id="edge19" class="edge">
<title>stub&#45;&gt;post</title>
<path fill="none" stroke="black" d="M54.11,-292.15C57.11,-290.75 60.12,-289.34 63,-288 90.41,-275.27 121.57,-261.04 144.69,-250.54"/>
<polygon fill="black" stroke="black" points="146.41,-253.6 154.07,-246.28 143.51,-247.23 146.41,-253.6"/>
</g>
<!-- tcp&#45;&gt;post -->
<g id="edge15" class="edge">
<title>tcp&#45;&gt;post</title>
<path fill="none" stroke="black" d="M118.78,-287.7C129.98,-277.89 144.05,-265.58 155.78,-255.32"/>
<polygon fill="black" stroke="black" points="158.24,-257.82 163.46,-248.6 153.63,-252.55 158.24,-257.82"/>
</g>
<!-- vxi&#45;&gt;post -->
<g id="edge16" class="edge">
<title>vxi&#45;&gt;post</title>
<path fill="none" stroke="black" d="M172.98,-287.7C173.87,-279.87 174.95,-270.44 175.95,-261.73"/>
<polygon fill="black" stroke="black" points="179.44,-261.96 177.1,-251.62 172.49,-261.16 179.44,-261.96"/>
</g>
<!-- modbus&#45;&gt;post -->
<g id="edge18" class="edge">
<title>modbus&#45;&gt;post</title>
<path fill="none" stroke="black" d="M232.45,-287.7C222.76,-278.15 210.66,-266.21 200.42,-256.12"/>
<polygon fill="black" stroke="black" points="202.6,-253.35 193.02,-248.82 197.69,-258.34 202.6,-253.35"/>
</g>
<!-- exec&#45;&gt;post -->
<g id="edge17" class="edge">
<title>exec&#45;&gt;post</title>
<path fill="none" stroke="black" d="M301.15,-289.81C275.13,-278.14 239.34,-262.08 213.23,-250.36"/>
<polygon fill="black" stroke="black" points="214.64,-247.16 204.08,-246.26 211.77,-253.54 214.64,-247.16"/>
</g>
<!-- post_js -->
<g id="node15" class="node">
<title>post_js</title>
<g id="a_node15"><a xlink:title="post&#45;processing of js code">
<polygon fill="none" stroke="black" points="123.5,-180 22.5,-180 22.5,-144 123.5,-144 123.5,-180"/>
<text text-anchor="middle" x="73" y="-158.9" font-family="Ubuntu" font-size="12.00">:PostProcessing</text>
</a>
</g>
</g>
<!-- post&#45;&gt;post_js -->
<g id="edge21" class="edge">
<title>post&#45;&gt;post_js</title>
<path fill="none" stroke="black" d="M160.05,-220.49C145.55,-210.91 125.14,-197.43 107.74,-185.94"/>
<polygon fill="black" stroke="black" points="109.23,-182.73 98.95,-180.14 105.37,-188.57 109.23,-182.73"/>
</g>
<!-- post_clj -->
<g id="node16" class="node">
<title>post_clj</title>
<g id="a_node16"><a xlink:title="clojure functions">
<polygon fill="none" stroke="black" points="216,-180 142,-180 142,-144 216,-144 216,-180"/>
<text text-anchor="middle" x="179" y="-158.9" font-family="Ubuntu" font-size="12.00">:PostScript</text>
</a>
</g>
</g>
<!-- post&#45;&gt;post_clj -->
<g id="edge23" class="edge">
<title>post&#45;&gt;post_clj</title>
<path fill="none" stroke="black" d="M179,-215.7C179,-207.98 179,-198.71 179,-190.11"/>
<polygon fill="black" stroke="black" points="182.5,-190.1 179,-180.1 175.5,-190.1 182.5,-190.1"/>
</g>
<!-- post_py -->
<g id="node17" class="node">
<title>post_py</title>
<g id="a_node17"><a xlink:title="post&#45;scripts with python3">
<polygon fill="none" stroke="black" points="321.5,-180 234.5,-180 234.5,-144 321.5,-144 321.5,-180"/>
<text text-anchor="middle" x="278" y="-158.9" font-family="Ubuntu" font-size="12.00">:PostScriptPy</text>
</a>
</g>
</g>
<!-- post&#45;&gt;post_py -->
<g id="edge22" class="edge">
<title>post&#45;&gt;post_py</title>
<path fill="none" stroke="black" d="M197.16,-220.16C210.53,-210.7 229.1,-197.58 245.06,-186.29"/>
<polygon fill="black" stroke="black" points="247.47,-188.87 253.62,-180.24 243.43,-183.16 247.47,-188.87"/>
</g>
<!-- post&#45;&gt;m2j -->
<g id="edge20" class="edge">
<title>post&#45;&gt;m2j</title>
<path fill="none" stroke="black" d="M234.88,-229.16C268.68,-223.62 309.31,-210.53 331,-180 346.61,-158.03 325.78,-131.28 305.83,-112.88"/>
<polygon fill="black" stroke="black" points="308.12,-110.24 298.3,-106.27 303.5,-115.5 308.12,-110.24"/>
</g>
<!-- post_js&#45;&gt;m2j -->
<g id="edge24" class="edge">
<title>post_js&#45;&gt;m2j</title>
<path fill="none" stroke="black" d="M122.89,-143.97C157.36,-132.19 202.74,-116.7 235.49,-105.51"/>
<polygon fill="black" stroke="black" points="236.9,-108.73 245.23,-102.19 234.64,-102.11 236.9,-108.73"/>
</g>
<!-- post_clj&#45;&gt;m2j -->
<g id="edge26" class="edge">
<title>post_clj&#45;&gt;m2j</title>
<path fill="none" stroke="black" d="M203.22,-143.88C216.78,-134.29 233.79,-122.26 248.17,-112.09"/>
<polygon fill="black" stroke="black" points="250.58,-114.68 256.72,-106.05 246.54,-108.96 250.58,-114.68"/>
</g>
<!-- post_py&#45;&gt;m2j -->
<g id="edge25" class="edge">
<title>post_py&#45;&gt;m2j</title>
<path fill="none" stroke="black" d="M278,-143.7C278,-135.98 278,-126.71 278,-118.11"/>
<polygon fill="black" stroke="black" points="281.5,-118.1 278,-108.1 274.5,-118.1 281.5,-118.1"/>
</g>
<!-- m2j&#45;&gt;res -->
<g id="edge28" class="edge">
<title>m2j&#45;&gt;res</title>
<path fill="none" stroke="black" d="M278,-71.7C278,-63.98 278,-54.71 278,-46.11"/>
<polygon fill="black" stroke="black" points="281.5,-46.1 278,-36.1 274.5,-46.1 281.5,-46.1"/>
</g>
</g>
</svg>
