<?xml version="1.0" encoding="UTF-8" standalone="no"?>
<!DOCTYPE svg PUBLIC "-//W3C//DTD SVG 1.1//EN"
 "http://www.w3.org/Graphics/SVG/1.1/DTD/svg11.dtd">
<!-- Generated by graphviz version 2.43.0 (0)
 -->
<!-- Title: regexp Pages: 1 -->
<svg width="431pt" height="692pt"
 viewBox="0.00 0.00 431.00 692.00" xmlns="http://www.w3.org/2000/svg" xmlns:xlink="http://www.w3.org/1999/xlink">
<g id="graph0" class="graph" transform="scale(1 1) rotate(0) translate(4 688)">
<title>regexp</title>
<!-- req -->
<g id="node1" class="node">
<title>req</title>
<g id="a_node1"><a xlink:title="incomming request">
<ellipse fill="none" stroke="black" cx="356" cy="-666" rx="35.91" ry="18"/>
<text text-anchor="middle" x="356" y="-662.9" font-family="Ubuntu" font-size="12.00">request</text>
</a>
</g>
</g>
<!-- j2m -->
<g id="node3" class="node">
<title>j2m</title>
<g id="a_node3"><a xlink:title="decode json to clojure map">
<ellipse fill="none" stroke="black" cx="356" cy="-594" rx="44.15" ry="18"/>
<text text-anchor="middle" x="356" y="-590.9" font-family="Ubuntu" font-size="12.00">json&#45;&gt;map</text>
</a>
</g>
</g>
<!-- req&#45;&gt;j2m -->
<g id="edge1" class="edge">
<title>req&#45;&gt;j2m</title>
<path fill="none" stroke="black" d="M356,-647.7C356,-639.98 356,-630.71 356,-622.11"/>
<polygon fill="black" stroke="black" points="359.5,-622.1 356,-612.1 352.5,-622.1 359.5,-622.1"/>
</g>
<!-- res -->
<g id="node2" class="node">
<title>res</title>
<g id="a_node2"><a xlink:title="outgoing response">
<ellipse fill="none" stroke="black" cx="239" cy="-18" rx="40.03" ry="18"/>
<text text-anchor="middle" x="239" y="-14.9" font-family="Ubuntu" font-size="12.00">response</text>
</a>
</g>
</g>
<!-- pre -->
<g id="node4" class="node">
<title>pre</title>
<g id="a_node4"><a xlink:title="pre&#45;scripts or pre&#45;processing">
<polygon fill="none" stroke="black" points="225,-540 153.73,-522 225,-504 296.27,-522 225,-540"/>
<text text-anchor="middle" x="225" y="-518.9" font-family="Ubuntu" font-size="12.00">pre dispatch</text>
</a>
</g>
</g>
<!-- j2m&#45;&gt;pre -->
<g id="edge5" class="edge">
<title>j2m&#45;&gt;pre</title>
<path fill="none" stroke="black" d="M330.12,-579.17C308.75,-567.75 278.38,-551.52 255.77,-539.44"/>
<polygon fill="black" stroke="black" points="257.38,-536.34 246.91,-534.71 254.09,-542.51 257.38,-536.34"/>
</g>
<!-- echo -->
<g id="node8" class="node">
<title>echo</title>
<g id="a_node8"><a xlink:title="echo">
<polygon fill="none" stroke="black" points="423,-396 369,-396 369,-360 423,-360 423,-396"/>
<text text-anchor="middle" x="396" y="-374.9" font-family="Ubuntu" font-size="12.00">echo</text>
</a>
</g>
</g>
<!-- j2m&#45;&gt;echo -->
<g id="edge3" class="edge">
<title>j2m&#45;&gt;echo</title>
<path fill="none" stroke="black" d="M360.97,-575.92C363.86,-565.58 367.43,-552.1 370,-540 379.93,-493.22 388.08,-438.08 392.47,-405.98"/>
<polygon fill="black" stroke="black" points="395.94,-406.4 393.81,-396.02 389.01,-405.47 395.94,-406.4"/>
</g>
<!-- disp -->
<g id="node9" class="node">
<title>disp</title>
<g id="a_node9"><a xlink:title="dispatch">
<polygon fill="none" stroke="black" points="192,-396 138.79,-378 192,-360 245.21,-378 192,-396"/>
<text text-anchor="middle" x="192" y="-374.9" font-family="Ubuntu" font-size="12.00">dispatch</text>
</a>
</g>
</g>
<!-- j2m&#45;&gt;disp -->
<g id="edge2" class="edge">
<title>j2m&#45;&gt;disp</title>
<path fill="none" stroke="black" d="M359.31,-575.79C364.44,-543.76 370.51,-474.39 337,-432 314.35,-403.35 274.74,-390.18 242.63,-384.14"/>
<polygon fill="black" stroke="black" points="242.95,-380.64 232.5,-382.41 241.77,-387.54 242.95,-380.64"/>
</g>
<!-- pre_js -->
<g id="node5" class="node">
<title>pre_js</title>
<g id="a_node5"><a xlink:title="pre&#45;processing of js code">
<polygon fill="none" stroke="black" points="139,-468 43,-468 43,-432 139,-432 139,-468"/>
<text text-anchor="middle" x="91" y="-446.9" font-family="Ubuntu" font-size="12.00">:PreProcessing</text>
</a>
</g>
</g>
<!-- pre&#45;&gt;pre_js -->
<g id="edge6" class="edge">
<title>pre&#45;&gt;pre_js</title>
<path fill="none" stroke="black" d="M202.87,-509.44C183.84,-499.5 155.87,-484.89 132.66,-472.76"/>
<polygon fill="black" stroke="black" points="134.18,-469.61 123.7,-468.08 130.94,-475.81 134.18,-469.61"/>
</g>
<!-- pre_clj -->
<g id="node6" class="node">
<title>pre_clj</title>
<g id="a_node6"><a xlink:title="clojure functions">
<polygon fill="none" stroke="black" points="226.5,-468 157.5,-468 157.5,-432 226.5,-432 226.5,-468"/>
<text text-anchor="middle" x="192" y="-446.9" font-family="Ubuntu" font-size="12.00">:PreScript</text>
</a>
</g>
</g>
<!-- pre&#45;&gt;pre_clj -->
<g id="edge8" class="edge">
<title>pre&#45;&gt;pre_clj</title>
<path fill="none" stroke="black" d="M217.68,-505.46C213.84,-497.33 209.04,-487.15 204.63,-477.79"/>
<polygon fill="black" stroke="black" points="207.66,-476.01 200.23,-468.46 201.33,-479 207.66,-476.01"/>
</g>
<!-- pre_py -->
<g id="node7" class="node">
<title>pre_py</title>
<g id="a_node7"><a xlink:title="pre&#45;scripts with python3">
<polygon fill="none" stroke="black" points="327.5,-468 244.5,-468 244.5,-432 327.5,-432 327.5,-468"/>
<text text-anchor="middle" x="286" y="-446.9" font-family="Ubuntu" font-size="12.00">:PreScriptPy</text>
</a>
</g>
</g>
<!-- pre&#45;&gt;pre_py -->
<g id="edge7" class="edge">
<title>pre&#45;&gt;pre_py</title>
<path fill="none" stroke="black" d="M237.34,-506.83C245.11,-497.92 255.35,-486.17 264.43,-475.75"/>
<polygon fill="black" stroke="black" points="267.16,-477.95 271.09,-468.11 261.88,-473.35 267.16,-477.95"/>
</g>
<!-- pre_js&#45;&gt;disp -->
<g id="edge9" class="edge">
<title>pre_js&#45;&gt;disp</title>
<path fill="none" stroke="black" d="M115.71,-431.88C131.23,-421.12 151.2,-407.28 166.82,-396.45"/>
<polygon fill="black" stroke="black" points="169.21,-399.05 175.44,-390.48 165.23,-393.3 169.21,-399.05"/>
</g>
<!-- pre_clj&#45;&gt;disp -->
<g id="edge11" class="edge">
<title>pre_clj&#45;&gt;disp</title>
<path fill="none" stroke="black" d="M192,-431.7C192,-423.98 192,-414.71 192,-406.11"/>
<polygon fill="black" stroke="black" points="195.5,-406.1 192,-396.1 188.5,-406.1 195.5,-406.1"/>
</g>
<!-- pre_py&#45;&gt;disp -->
<g id="edge10" class="edge">
<title>pre_py&#45;&gt;disp</title>
<path fill="none" stroke="black" d="M262.76,-431.7C248.63,-421.17 230.6,-407.74 216.27,-397.08"/>
<polygon fill="black" stroke="black" points="218.02,-394.01 207.9,-390.84 213.83,-399.62 218.02,-394.01"/>
</g>
<!-- m2j -->
<g id="node19" class="node">
<title>m2j</title>
<g id="a_node19"><a xlink:title="clojure map to decode json">
<ellipse fill="none" stroke="black" cx="239" cy="-90" rx="44.15" ry="18"/>
<text text-anchor="middle" x="239" y="-86.9" font-family="Ubuntu" font-size="12.00">map&#45;&gt;json</text>
</a>
</g>
</g>
<!-- echo&#45;&gt;m2j -->
<g id="edge4" class="edge">
<title>echo&#45;&gt;m2j</title>
<path fill="none" stroke="black" d="M400.28,-359.97C409.65,-318.36 427.43,-210.13 378,-144 357.72,-116.86 321.73,-103.62 291.45,-97.16"/>
<polygon fill="black" stroke="black" points="291.92,-93.68 281.43,-95.22 290.58,-100.56 291.92,-93.68"/>
</g>
<!-- stub -->
<g id="node10" class="node">
<title>stub</title>
<g id="a_node10"><a xlink:title="pre defind responses">
<polygon fill="none" stroke="black" points="297,-324 243,-324 243,-288 297,-288 297,-324"/>
<text text-anchor="middle" x="270" y="-302.9" font-family="Ubuntu" font-size="12.00">stub</text>
</a>
</g>
</g>
<!-- disp&#45;&gt;stub -->
<g id="edge12" class="edge">
<title>disp&#45;&gt;stub</title>
<path fill="none" stroke="black" d="M205.94,-364.49C216.32,-355.17 230.81,-342.17 243.38,-330.89"/>
<polygon fill="black" stroke="black" points="245.8,-333.42 250.9,-324.14 241.12,-328.21 245.8,-333.42"/>
</g>
<!-- tcp -->
<g id="node11" class="node">
<title>tcp</title>
<g id="a_node11"><a xlink:title="requests to tcp devices">
<polygon fill="none" stroke="black" points="369,-324 315,-324 315,-288 369,-288 369,-324"/>
<text text-anchor="middle" x="342" y="-302.9" font-family="Ubuntu" font-size="12.00">TCP</text>
</a>
</g>
</g>
<!-- disp&#45;&gt;tcp -->
<g id="edge13" class="edge">
<title>disp&#45;&gt;tcp</title>
<path fill="none" stroke="black" d="M213.45,-367.07C234.68,-357.24 268.31,-341.63 305.8,-324.08"/>
<polygon fill="black" stroke="black" points="307.31,-327.24 314.88,-319.83 304.34,-320.9 307.31,-327.24"/>
</g>
<!-- vxi -->
<g id="node12" class="node">
<title>vxi</title>
<g id="a_node12"><a xlink:title="requests to vxi devices">
<polygon fill="none" stroke="black" points="54,-324 0,-324 0,-288 54,-288 54,-324"/>
<text text-anchor="middle" x="27" y="-302.9" font-family="Ubuntu" font-size="12.00">VXI</text>
</a>
</g>
</g>
<!-- disp&#45;&gt;vxi -->
<g id="edge14" class="edge">
<title>disp&#45;&gt;vxi</title>
<path fill="none" stroke="black" d="M168.54,-367.78C144.35,-358.19 105.35,-342.47 63.35,-324.05"/>
<polygon fill="black" stroke="black" points="64.62,-320.79 54.06,-319.96 61.8,-327.2 64.62,-320.79"/>
</g>
<!-- modbus -->
<g id="node13" class="node">
<title>modbus</title>
<g id="a_node13"><a xlink:title="requests to modbus devices">
<polygon fill="none" stroke="black" points="139.5,-324 72.5,-324 72.5,-288 139.5,-288 139.5,-324"/>
<text text-anchor="middle" x="106" y="-302.9" font-family="Ubuntu" font-size="12.00">MODBUS</text>
</a>
</g>
</g>
<!-- disp&#45;&gt;modbus -->
<g id="edge16" class="edge">
<title>disp&#45;&gt;modbus</title>
<path fill="none" stroke="black" d="M177.02,-364.81C165.43,-355.38 149.04,-342.03 134.92,-330.54"/>
<polygon fill="black" stroke="black" points="136.89,-327.63 126.93,-324.03 132.47,-333.06 136.89,-327.63"/>
</g>
<!-- exec -->
<g id="node14" class="node">
<title>exec</title>
<g id="a_node14"><a xlink:title="execution of commands">
<polygon fill="none" stroke="black" points="224.5,-324 157.5,-324 157.5,-288 224.5,-288 224.5,-324"/>
<text text-anchor="middle" x="191" y="-302.9" font-family="Ubuntu" font-size="12.00">EXECUTE</text>
</a>
</g>
</g>
<!-- disp&#45;&gt;exec -->
<g id="edge15" class="edge">
<title>disp&#45;&gt;exec</title>
<path fill="none" stroke="black" d="M191.76,-360.05C191.65,-352.35 191.51,-343.03 191.39,-334.36"/>
<polygon fill="black" stroke="black" points="194.89,-334.22 191.25,-324.28 187.89,-334.32 194.89,-334.22"/>
</g>
<!-- post -->
<g id="node15" class="node">
<title>post</title>
<g id="a_node15"><a xlink:title="post&#45;scripts or post&#45;processing">
<polygon fill="none" stroke="black" points="191,-252 115.02,-234 191,-216 266.98,-234 191,-252"/>
<text text-anchor="middle" x="191" y="-230.9" font-family="Ubuntu" font-size="12.00">post dispatch</text>
</a>
</g>
</g>
<!-- stub&#45;&gt;post -->
<g id="edge21" class="edge">
<title>stub&#45;&gt;post</title>
<path fill="none" stroke="black" d="M250.47,-287.7C239.41,-277.89 225.51,-265.58 213.93,-255.32"/>
<polygon fill="black" stroke="black" points="216.15,-252.61 206.35,-248.6 211.51,-257.85 216.15,-252.61"/>
</g>
<!-- tcp&#45;&gt;post -->
<g id="edge17" class="edge">
<title>tcp&#45;&gt;post</title>
<path fill="none" stroke="black" d="M314.89,-292.16C311.89,-290.75 308.88,-289.34 306,-288 278.81,-275.31 247.92,-261.09 225,-250.57"/>
<polygon fill="black" stroke="black" points="226.26,-247.29 215.71,-246.31 223.34,-253.66 226.26,-247.29"/>
</g>
<!-- vxi&#45;&gt;post -->
<g id="edge18" class="edge">
<title>vxi&#45;&gt;post</title>
<path fill="none" stroke="black" d="M54.06,-292.05C57.07,-290.66 60.09,-289.29 63,-288 93.62,-274.44 128.79,-259.96 154.5,-249.56"/>
<polygon fill="black" stroke="black" points="155.9,-252.77 163.87,-245.79 153.29,-246.28 155.9,-252.77"/>
</g>
<!-- modbus&#45;&gt;post -->
<g id="edge20" class="edge">
<title>modbus&#45;&gt;post</title>
<path fill="none" stroke="black" d="M127.01,-287.7C139.11,-277.73 154.36,-265.17 166.94,-254.81"/>
<polygon fill="black" stroke="black" points="169.26,-257.43 174.76,-248.38 164.81,-252.03 169.26,-257.43"/>
</g>
<!-- exec&#45;&gt;post -->
<g id="edge19" class="edge">
<title>exec&#45;&gt;post</title>
<path fill="none" stroke="black" d="M191,-287.7C191,-279.98 191,-270.71 191,-262.11"/>
<polygon fill="black" stroke="black" points="194.5,-262.1 191,-252.1 187.5,-262.1 194.5,-262.1"/>
</g>
<!-- post_js -->
<g id="node16" class="node">
<title>post_js</title>
<g id="a_node16"><a xlink:title="post&#45;processing of js code">
<polygon fill="none" stroke="black" points="368.5,-180 267.5,-180 267.5,-144 368.5,-144 368.5,-180"/>
<text text-anchor="middle" x="318" y="-158.9" font-family="Ubuntu" font-size="12.00">:PostProcessing</text>
</a>
</g>
</g>
<!-- post&#45;&gt;post_js -->
<g id="edge23" class="edge">
<title>post&#45;&gt;post_js</title>
<path fill="none" stroke="black" d="M212.83,-220.97C230.7,-211.12 256.46,-196.92 278.01,-185.04"/>
<polygon fill="black" stroke="black" points="279.88,-188.01 286.95,-180.11 276.51,-181.87 279.88,-188.01"/>
</g>
<!-- post_clj -->
<g id="node17" class="node">
<title>post_clj</title>
<g id="a_node17"><a xlink:title="clojure functions">
<polygon fill="none" stroke="black" points="105,-180 31,-180 31,-144 105,-144 105,-180"/>
<text text-anchor="middle" x="68" y="-158.9" font-family="Ubuntu" font-size="12.00">:PostScript</text>
</a>
</g>
</g>
<!-- post&#45;&gt;post_clj -->
<g id="edge25" class="edge">
<title>post&#45;&gt;post_clj</title>
<path fill="none" stroke="black" d="M169.86,-220.97C152.62,-211.16 127.82,-197.05 107.01,-185.2"/>
<polygon fill="black" stroke="black" points="108.49,-182.02 98.07,-180.11 105.03,-188.1 108.49,-182.02"/>
</g>
<!-- post_py -->
<g id="node18" class="node">
<title>post_py</title>
<g id="a_node18"><a xlink:title="post&#45;scripts with python3">
<polygon fill="none" stroke="black" points="210.5,-180 123.5,-180 123.5,-144 210.5,-144 210.5,-180"/>
<text text-anchor="middle" x="167" y="-158.9" font-family="Ubuntu" font-size="12.00">:PostScriptPy</text>
</a>
</g>
</g>
<!-- post&#45;&gt;post_py -->
<g id="edge24" class="edge">
<title>post&#45;&gt;post_py</title>
<path fill="none" stroke="black" d="M185.55,-217.12C182.79,-209.06 179.36,-199.05 176.2,-189.84"/>
<polygon fill="black" stroke="black" points="179.48,-188.62 172.93,-180.29 172.86,-190.89 179.48,-188.62"/>
</g>
<!-- post&#45;&gt;m2j -->
<g id="edge22" class="edge">
<title>post&#45;&gt;m2j</title>
<path fill="none" stroke="black" d="M200.46,-217.73C206.5,-207.41 214.1,-193.28 219,-180 226.44,-159.85 231.61,-136.07 234.82,-118.16"/>
<polygon fill="black" stroke="black" points="238.31,-118.56 236.54,-108.11 231.41,-117.38 238.31,-118.56"/>
</g>
<!-- post_js&#45;&gt;m2j -->
<g id="edge26" class="edge">
<title>post_js&#45;&gt;m2j</title>
<path fill="none" stroke="black" d="M298.47,-143.7C288.18,-134.57 275.43,-123.28 264.37,-113.48"/>
<polygon fill="black" stroke="black" points="266.49,-110.68 256.69,-106.67 261.85,-115.92 266.49,-110.68"/>
</g>
<!-- post_clj&#45;&gt;m2j -->
<g id="edge28" class="edge">
<title>post_clj&#45;&gt;m2j</title>
<path fill="none" stroke="black" d="M105.1,-145.81C132.87,-134.44 170.79,-118.92 199.19,-107.3"/>
<polygon fill="black" stroke="black" points="200.88,-110.39 208.8,-103.36 198.22,-103.91 200.88,-110.39"/>
</g>
<!-- post_py&#45;&gt;m2j -->
<g id="edge27" class="edge">
<title>post_py&#45;&gt;m2j</title>
<path fill="none" stroke="black" d="M184.8,-143.7C193.96,-134.79 205.25,-123.81 215.15,-114.19"/>
<polygon fill="black" stroke="black" points="217.66,-116.62 222.39,-107.14 212.78,-111.61 217.66,-116.62"/>
</g>
<!-- m2j&#45;&gt;res -->
<g id="edge29" class="edge">
<title>m2j&#45;&gt;res</title>
<path fill="none" stroke="black" d="M239,-71.7C239,-63.98 239,-54.71 239,-46.11"/>
<polygon fill="black" stroke="black" points="242.5,-46.1 239,-36.1 235.5,-46.1 242.5,-46.1"/>
</g>
</g>
</svg>
