<?xml version="1.0" encoding="UTF-8" standalone="no"?>
<!DOCTYPE svg PUBLIC "-//W3C//DTD SVG 1.1//EN"
 "http://www.w3.org/Graphics/SVG/1.1/DTD/svg11.dtd">
<!-- Generated by graphviz version 2.43.0 (0)
 -->
<!-- Title: regexp Pages: 1 -->
<svg width="446pt" height="692pt"
 viewBox="0.00 0.00 445.50 692.00" xmlns="http://www.w3.org/2000/svg" xmlns:xlink="http://www.w3.org/1999/xlink">
<g id="graph0" class="graph" transform="scale(1 1) rotate(0) translate(4 688)">
<title>regexp</title>
<!-- req -->
<g id="node1" class="node">
<title>req</title>
<g id="a_node1"><a xlink:title="incomming request">
<ellipse fill="none" stroke="black" cx="366.5" cy="-666" rx="35.91" ry="18"/>
<text text-anchor="middle" x="366.5" y="-662.9" font-family="Ubuntu" font-size="12.00">request</text>
</a>
</g>
</g>
<!-- j2m -->
<g id="node3" class="node">
<title>j2m</title>
<g id="a_node3"><a xlink:title="decode json to clojure map">
<ellipse fill="none" stroke="black" cx="366.5" cy="-594" rx="44.15" ry="18"/>
<text text-anchor="middle" x="366.5" y="-590.9" font-family="Ubuntu" font-size="12.00">json&#45;&gt;map</text>
</a>
</g>
</g>
<!-- req&#45;&gt;j2m -->
<g id="edge1" class="edge">
<title>req&#45;&gt;j2m</title>
<path fill="none" stroke="black" d="M366.5,-647.7C366.5,-639.98 366.5,-630.71 366.5,-622.11"/>
<polygon fill="black" stroke="black" points="370,-622.1 366.5,-612.1 363,-622.1 370,-622.1"/>
</g>
<!-- res -->
<g id="node2" class="node">
<title>res</title>
<g id="a_node2"><a xlink:title="outgoing response">
<ellipse fill="none" stroke="black" cx="280.5" cy="-18" rx="40.03" ry="18"/>
<text text-anchor="middle" x="280.5" y="-14.9" font-family="Ubuntu" font-size="12.00">response</text>
</a>
</g>
</g>
<!-- pre -->
<g id="node4" class="node">
<title>pre</title>
<g id="a_node4"><a xlink:title="pre&#45;scripts or pre&#45;processing">
<polygon fill="none" stroke="black" points="216.5,-540 145.23,-522 216.5,-504 287.77,-522 216.5,-540"/>
<text text-anchor="middle" x="216.5" y="-518.9" font-family="Ubuntu" font-size="12.00">pre dispatch</text>
</a>
</g>
</g>
<!-- j2m&#45;&gt;pre -->
<g id="edge5" class="edge">
<title>j2m&#45;&gt;pre</title>
<path fill="none" stroke="black" d="M338.64,-580C313.43,-568.24 276.29,-550.9 249.59,-538.44"/>
<polygon fill="black" stroke="black" points="250.8,-535.15 240.26,-534.09 247.84,-541.49 250.8,-535.15"/>
</g>
<!-- echo -->
<g id="node8" class="node">
<title>echo</title>
<g id="a_node8"><a xlink:title="echo">
<polygon fill="none" stroke="black" points="409.5,-396 355.5,-396 355.5,-360 409.5,-360 409.5,-396"/>
<text text-anchor="middle" x="382.5" y="-374.9" font-family="Ubuntu" font-size="12.00">echo</text>
</a>
</g>
</g>
<!-- j2m&#45;&gt;echo -->
<g id="edge3" class="edge">
<title>j2m&#45;&gt;echo</title>
<path fill="none" stroke="black" d="M367.78,-575.85C370.55,-538.83 377.1,-451.18 380.45,-406.39"/>
<polygon fill="black" stroke="black" points="383.96,-406.47 381.21,-396.23 376.98,-405.94 383.96,-406.47"/>
</g>
<!-- disp -->
<g id="node9" class="node">
<title>disp</title>
<g id="a_node9"><a xlink:title="dispatch">
<polygon fill="none" stroke="black" points="184.5,-396 131.29,-378 184.5,-360 237.71,-378 184.5,-396"/>
<text text-anchor="middle" x="184.5" y="-374.9" font-family="Ubuntu" font-size="12.00">dispatch</text>
</a>
</g>
</g>
<!-- j2m&#45;&gt;disp -->
<g id="edge2" class="edge">
<title>j2m&#45;&gt;disp</title>
<path fill="none" stroke="black" d="M367.42,-575.58C368.16,-543.2 365.06,-473.27 328.5,-432 304.19,-404.56 264.41,-391.31 232.81,-384.92"/>
<polygon fill="black" stroke="black" points="233.34,-381.45 222.87,-383.07 232.07,-388.34 233.34,-381.45"/>
</g>
<!-- m2j -->
<g id="node19" class="node">
<title>m2j</title>
<g id="a_node19"><a xlink:title="clojure map to decode json">
<ellipse fill="none" stroke="black" cx="280.5" cy="-90" rx="44.15" ry="18"/>
<text text-anchor="middle" x="280.5" y="-86.9" font-family="Ubuntu" font-size="12.00">map&#45;&gt;json</text>
</a>
</g>
</g>
<!-- j2m&#45;&gt;m2j -->
<g id="edge29" class="edge">
<title>j2m&#45;&gt;m2j</title>
<path fill="none" stroke="black" d="M380.87,-576.84C401.61,-551.77 437.5,-501.16 437.5,-451 437.5,-451 437.5,-451 437.5,-233 437.5,-190.16 430.46,-174.62 400.5,-144 380.83,-123.9 352.22,-110.86 327.86,-102.74"/>
<polygon fill="black" stroke="black" points="328.66,-99.32 318.07,-99.66 326.56,-106 328.66,-99.32"/>
</g>
<!-- pre_js -->
<g id="node5" class="node">
<title>pre_js</title>
<g id="a_node5"><a xlink:title="pre&#45;processing of js code">
<polygon fill="none" stroke="black" points="231.5,-468 135.5,-468 135.5,-432 231.5,-432 231.5,-468"/>
<text text-anchor="middle" x="183.5" y="-446.9" font-family="Ubuntu" font-size="12.00">:PreProcessing</text>
</a>
</g>
</g>
<!-- pre&#45;&gt;pre_js -->
<g id="edge6" class="edge">
<title>pre&#45;&gt;pre_js</title>
<path fill="none" stroke="black" d="M209.18,-505.46C205.34,-497.33 200.54,-487.15 196.13,-477.79"/>
<polygon fill="black" stroke="black" points="199.16,-476.01 191.73,-468.46 192.83,-479 199.16,-476.01"/>
</g>
<!-- pre_clj -->
<g id="node6" class="node">
<title>pre_clj</title>
<g id="a_node6"><a xlink:title="clojure functions">
<polygon fill="none" stroke="black" points="319,-468 250,-468 250,-432 319,-432 319,-468"/>
<text text-anchor="middle" x="284.5" y="-446.9" font-family="Ubuntu" font-size="12.00">:PreScript</text>
</a>
</g>
</g>
<!-- pre&#45;&gt;pre_clj -->
<g id="edge8" class="edge">
<title>pre&#45;&gt;pre_clj</title>
<path fill="none" stroke="black" d="M229.93,-507.17C238.72,-498.13 250.43,-486.07 260.76,-475.44"/>
<polygon fill="black" stroke="black" points="263.51,-477.63 267.97,-468.02 258.49,-472.75 263.51,-477.63"/>
</g>
<!-- pre_py -->
<g id="node7" class="node">
<title>pre_py</title>
<g id="a_node7"><a xlink:title="pre&#45;scripts with python3">
<polygon fill="none" stroke="black" points="117,-468 34,-468 34,-432 117,-432 117,-468"/>
<text text-anchor="middle" x="75.5" y="-446.9" font-family="Ubuntu" font-size="12.00">:PreScriptPy</text>
</a>
</g>
</g>
<!-- pre&#45;&gt;pre_py -->
<g id="edge7" class="edge">
<title>pre&#45;&gt;pre_py</title>
<path fill="none" stroke="black" d="M193.53,-509.6C173.4,-499.6 143.58,-484.8 118.95,-472.57"/>
<polygon fill="black" stroke="black" points="120.31,-469.34 109.8,-468.03 117.2,-475.61 120.31,-469.34"/>
</g>
<!-- pre_js&#45;&gt;disp -->
<g id="edge9" class="edge">
<title>pre_js&#45;&gt;disp</title>
<path fill="none" stroke="black" d="M183.75,-431.7C183.86,-423.98 183.99,-414.71 184.11,-406.11"/>
<polygon fill="black" stroke="black" points="187.61,-406.15 184.26,-396.1 180.61,-406.05 187.61,-406.15"/>
</g>
<!-- pre_clj&#45;&gt;disp -->
<g id="edge11" class="edge">
<title>pre_clj&#45;&gt;disp</title>
<path fill="none" stroke="black" d="M260.04,-431.88C244.67,-421.12 224.89,-407.28 209.43,-396.45"/>
<polygon fill="black" stroke="black" points="211.1,-393.34 200.9,-390.48 207.08,-399.08 211.1,-393.34"/>
</g>
<!-- pre_py&#45;&gt;disp -->
<g id="edge10" class="edge">
<title>pre_py&#45;&gt;disp</title>
<path fill="none" stroke="black" d="M102.16,-431.88C119.18,-420.95 141.15,-406.84 158.11,-395.95"/>
<polygon fill="black" stroke="black" points="160.43,-398.61 166.96,-390.27 156.65,-392.72 160.43,-398.61"/>
</g>
<!-- echo&#45;&gt;m2j -->
<g id="edge4" class="edge">
<title>echo&#45;&gt;m2j</title>
<path fill="none" stroke="black" d="M387.74,-359.9C399.16,-319.05 422.04,-214.01 379.5,-144 367.84,-124.81 346.64,-112.17 326.84,-104.05"/>
<polygon fill="black" stroke="black" points="327.87,-100.7 317.28,-100.43 325.39,-107.25 327.87,-100.7"/>
</g>
<!-- stub -->
<g id="node10" class="node">
<title>stub</title>
<g id="a_node10"><a xlink:title="pre defind responses">
<polygon fill="none" stroke="black" points="139.5,-324 85.5,-324 85.5,-288 139.5,-288 139.5,-324"/>
<text text-anchor="middle" x="112.5" y="-302.9" font-family="Ubuntu" font-size="12.00">stub</text>
</a>
</g>
</g>
<!-- disp&#45;&gt;stub -->
<g id="edge12" class="edge">
<title>disp&#45;&gt;stub</title>
<path fill="none" stroke="black" d="M171.29,-364.16C161.84,-354.97 148.81,-342.3 137.43,-331.23"/>
<polygon fill="black" stroke="black" points="139.84,-328.7 130.23,-324.24 134.96,-333.72 139.84,-328.7"/>
</g>
<!-- tcp -->
<g id="node11" class="node">
<title>tcp</title>
<g id="a_node11"><a xlink:title="requests to tcp devices">
<polygon fill="none" stroke="black" points="211.5,-324 157.5,-324 157.5,-288 211.5,-288 211.5,-324"/>
<text text-anchor="middle" x="184.5" y="-302.9" font-family="Ubuntu" font-size="12.00">TCP</text>
</a>
</g>
</g>
<!-- disp&#45;&gt;tcp -->
<g id="edge13" class="edge">
<title>disp&#45;&gt;tcp</title>
<path fill="none" stroke="black" d="M184.5,-359.7C184.5,-351.98 184.5,-342.71 184.5,-334.11"/>
<polygon fill="black" stroke="black" points="188,-334.1 184.5,-324.1 181,-334.1 188,-334.1"/>
</g>
<!-- vxi -->
<g id="node12" class="node">
<title>vxi</title>
<g id="a_node12"><a xlink:title="requests to vxi devices">
<polygon fill="none" stroke="black" points="283.5,-324 229.5,-324 229.5,-288 283.5,-288 283.5,-324"/>
<text text-anchor="middle" x="256.5" y="-302.9" font-family="Ubuntu" font-size="12.00">VXI</text>
</a>
</g>
</g>
<!-- disp&#45;&gt;vxi -->
<g id="edge14" class="edge">
<title>disp&#45;&gt;vxi</title>
<path fill="none" stroke="black" d="M197.71,-364.16C207.16,-354.97 220.19,-342.3 231.57,-331.23"/>
<polygon fill="black" stroke="black" points="234.04,-333.72 238.77,-324.24 229.16,-328.7 234.04,-333.72"/>
</g>
<!-- modbus -->
<g id="node13" class="node">
<title>modbus</title>
<g id="a_node13"><a xlink:title="requests to modbus devices">
<polygon fill="none" stroke="black" points="369,-324 302,-324 302,-288 369,-288 369,-324"/>
<text text-anchor="middle" x="335.5" y="-302.9" font-family="Ubuntu" font-size="12.00">MODBUS</text>
</a>
</g>
</g>
<!-- disp&#45;&gt;modbus -->
<g id="edge16" class="edge">
<title>disp&#45;&gt;modbus</title>
<path fill="none" stroke="black" d="M205.81,-367.12C228.24,-356.72 264.14,-340.08 292.49,-326.94"/>
<polygon fill="black" stroke="black" points="294.18,-330.01 301.78,-322.63 291.24,-323.66 294.18,-330.01"/>
</g>
<!-- exec -->
<g id="node14" class="node">
<title>exec</title>
<g id="a_node14"><a xlink:title="execution of commands">
<polygon fill="none" stroke="black" points="67,-324 0,-324 0,-288 67,-288 67,-324"/>
<text text-anchor="middle" x="33.5" y="-302.9" font-family="Ubuntu" font-size="12.00">EXECUTE</text>
</a>
</g>
</g>
<!-- disp&#45;&gt;exec -->
<g id="edge15" class="edge">
<title>disp&#45;&gt;exec</title>
<path fill="none" stroke="black" d="M163.19,-367.12C140.76,-356.72 104.86,-340.08 76.51,-326.94"/>
<polygon fill="black" stroke="black" points="77.76,-323.66 67.22,-322.63 74.82,-330.01 77.76,-323.66"/>
</g>
<!-- post -->
<g id="node15" class="node">
<title>post</title>
<g id="a_node15"><a xlink:title="post&#45;scripts or post&#45;processing">
<polygon fill="none" stroke="black" points="184.5,-252 108.52,-234 184.5,-216 260.48,-234 184.5,-252"/>
<text text-anchor="middle" x="184.5" y="-230.9" font-family="Ubuntu" font-size="12.00">post dispatch</text>
</a>
</g>
</g>
<!-- stub&#45;&gt;post -->
<g id="edge21" class="edge">
<title>stub&#45;&gt;post</title>
<path fill="none" stroke="black" d="M130.3,-287.7C140.22,-278.05 152.64,-265.98 163.09,-255.82"/>
<polygon fill="black" stroke="black" points="165.55,-258.3 170.28,-248.82 160.67,-253.29 165.55,-258.3"/>
</g>
<!-- tcp&#45;&gt;post -->
<g id="edge17" class="edge">
<title>tcp&#45;&gt;post</title>
<path fill="none" stroke="black" d="M184.5,-287.7C184.5,-279.98 184.5,-270.71 184.5,-262.11"/>
<polygon fill="black" stroke="black" points="188,-262.1 184.5,-252.1 181,-262.1 188,-262.1"/>
</g>
<!-- vxi&#45;&gt;post -->
<g id="edge18" class="edge">
<title>vxi&#45;&gt;post</title>
<path fill="none" stroke="black" d="M238.7,-287.7C228.78,-278.05 216.36,-265.98 205.91,-255.82"/>
<polygon fill="black" stroke="black" points="208.33,-253.29 198.72,-248.82 203.45,-258.3 208.33,-253.29"/>
</g>
<!-- modbus&#45;&gt;post -->
<g id="edge20" class="edge">
<title>modbus&#45;&gt;post</title>
<path fill="none" stroke="black" d="M301.99,-289.46C277.03,-277.89 243.09,-262.16 218.1,-250.58"/>
<polygon fill="black" stroke="black" points="219.55,-247.39 209,-246.36 216.6,-253.74 219.55,-247.39"/>
</g>
<!-- exec&#45;&gt;post -->
<g id="edge19" class="edge">
<title>exec&#45;&gt;post</title>
<path fill="none" stroke="black" d="M67.01,-289.46C91.97,-277.89 125.91,-262.16 150.9,-250.58"/>
<polygon fill="black" stroke="black" points="152.4,-253.74 160,-246.36 149.45,-247.39 152.4,-253.74"/>
</g>
<!-- post_js -->
<g id="node16" class="node">
<title>post_js</title>
<g id="a_node16"><a xlink:title="post&#45;processing of js code">
<polygon fill="none" stroke="black" points="278,-180 177,-180 177,-144 278,-144 278,-180"/>
<text text-anchor="middle" x="227.5" y="-158.9" font-family="Ubuntu" font-size="12.00">:PostProcessing</text>
</a>
</g>
</g>
<!-- post&#45;&gt;post_js -->
<g id="edge23" class="edge">
<title>post&#45;&gt;post_js</title>
<path fill="none" stroke="black" d="M193.62,-218.15C198.87,-209.61 205.61,-198.64 211.69,-188.74"/>
<polygon fill="black" stroke="black" points="214.78,-190.39 217.03,-180.04 208.82,-186.73 214.78,-190.39"/>
</g>
<!-- post_clj -->
<g id="node17" class="node">
<title>post_clj</title>
<g id="a_node17"><a xlink:title="clojure functions">
<polygon fill="none" stroke="black" points="370.5,-180 296.5,-180 296.5,-144 370.5,-144 370.5,-180"/>
<text text-anchor="middle" x="333.5" y="-158.9" font-family="Ubuntu" font-size="12.00">:PostScript</text>
</a>
</g>
</g>
<!-- post&#45;&gt;post_clj -->
<g id="edge25" class="edge">
<title>post&#45;&gt;post_clj</title>
<path fill="none" stroke="black" d="M208.77,-221.6C230.14,-211.56 261.84,-196.67 287.93,-184.41"/>
<polygon fill="black" stroke="black" points="289.7,-187.45 297.26,-180.03 286.72,-181.11 289.7,-187.45"/>
</g>
<!-- post_py -->
<g id="node18" class="node">
<title>post_py</title>
<g id="a_node18"><a xlink:title="post&#45;scripts with python3">
<polygon fill="none" stroke="black" points="120,-180 33,-180 33,-144 120,-144 120,-180"/>
<text text-anchor="middle" x="76.5" y="-158.9" font-family="Ubuntu" font-size="12.00">:PostScriptPy</text>
</a>
</g>
</g>
<!-- post&#45;&gt;post_py -->
<g id="edge24" class="edge">
<title>post&#45;&gt;post_py</title>
<path fill="none" stroke="black" d="M165.19,-220.49C150.28,-210.82 129.25,-197.19 111.4,-185.62"/>
<polygon fill="black" stroke="black" points="113.24,-182.64 102.94,-180.14 109.43,-188.52 113.24,-182.64"/>
</g>
<!-- post&#45;&gt;m2j -->
<g id="edge22" class="edge">
<title>post&#45;&gt;m2j</title>
<path fill="none" stroke="black" d="M175.52,-217.92C165.65,-199.16 152.99,-166.84 167.5,-144 181.53,-121.92 207.47,-108.87 230.96,-101.26"/>
<polygon fill="black" stroke="black" points="232.25,-104.53 240.83,-98.31 230.25,-97.82 232.25,-104.53"/>
</g>
<!-- post_js&#45;&gt;m2j -->
<g id="edge26" class="edge">
<title>post_js&#45;&gt;m2j</title>
<path fill="none" stroke="black" d="M240.6,-143.7C246.98,-135.27 254.78,-124.97 261.77,-115.73"/>
<polygon fill="black" stroke="black" points="264.67,-117.71 267.91,-107.62 259.09,-113.48 264.67,-117.71"/>
</g>
<!-- post_clj&#45;&gt;m2j -->
<g id="edge28" class="edge">
<title>post_clj&#45;&gt;m2j</title>
<path fill="none" stroke="black" d="M320.4,-143.7C314.02,-135.27 306.22,-124.97 299.23,-115.73"/>
<polygon fill="black" stroke="black" points="301.91,-113.48 293.09,-107.62 296.33,-117.71 301.91,-113.48"/>
</g>
<!-- post_py&#45;&gt;m2j -->
<g id="edge27" class="edge">
<title>post_py&#45;&gt;m2j</title>
<path fill="none" stroke="black" d="M120.01,-146.07C154.84,-134.12 203.41,-117.45 237.97,-105.59"/>
<polygon fill="black" stroke="black" points="239.45,-108.79 247.77,-102.23 237.18,-102.17 239.45,-108.79"/>
</g>
<!-- m2j&#45;&gt;res -->
<g id="edge30" class="edge">
<title>m2j&#45;&gt;res</title>
<path fill="none" stroke="black" d="M280.5,-71.7C280.5,-63.98 280.5,-54.71 280.5,-46.11"/>
<polygon fill="black" stroke="black" points="284,-46.1 280.5,-36.1 277,-46.1 284,-46.1"/>
</g>
</g>
</svg>
